<mxfile host="app.diagrams.net" agent="Mozilla/5.0 (Windows NT 10.0; Win64; x64) AppleWebKit/537.36 (KHTML, like Gecko) Chrome/131.0.0.0 Safari/537.36" version="25.0.3">
  <diagram id="C5RBs43oDa-KdzZeNtuy" name="Page-1">
    <mxGraphModel dx="1290" dy="1699" grid="1" gridSize="10" guides="1" tooltips="1" connect="1" arrows="1" fold="1" page="1" pageScale="1" pageWidth="827" pageHeight="1169" math="0" shadow="0">
      <root>
        <mxCell id="WIyWlLk6GJQsqaUBKTNV-0" />
        <mxCell id="WIyWlLk6GJQsqaUBKTNV-1" parent="WIyWlLk6GJQsqaUBKTNV-0" />
        <mxCell id="PCej6FupO0yh5T7sdm5t-20" style="edgeStyle=orthogonalEdgeStyle;rounded=0;orthogonalLoop=1;jettySize=auto;html=1;exitX=0.5;exitY=1;exitDx=0;exitDy=0;exitPerimeter=0;" edge="1" parent="WIyWlLk6GJQsqaUBKTNV-1" source="PCej6FupO0yh5T7sdm5t-0" target="PCej6FupO0yh5T7sdm5t-19">
          <mxGeometry relative="1" as="geometry" />
        </mxCell>
        <mxCell id="PCej6FupO0yh5T7sdm5t-0" value="START" style="strokeWidth=2;html=1;shape=mxgraph.flowchart.start_1;whiteSpace=wrap;" vertex="1" parent="WIyWlLk6GJQsqaUBKTNV-1">
          <mxGeometry x="410" width="100" height="60" as="geometry" />
        </mxCell>
        <mxCell id="PCej6FupO0yh5T7sdm5t-10" style="edgeStyle=orthogonalEdgeStyle;rounded=0;orthogonalLoop=1;jettySize=auto;html=1;exitX=0.5;exitY=1;exitDx=0;exitDy=0;entryX=0.5;entryY=0;entryDx=0;entryDy=0;entryPerimeter=0;" edge="1" parent="WIyWlLk6GJQsqaUBKTNV-1" source="PCej6FupO0yh5T7sdm5t-1" target="PCej6FupO0yh5T7sdm5t-3">
          <mxGeometry relative="1" as="geometry">
            <mxPoint x="460" y="240" as="targetPoint" />
          </mxGeometry>
        </mxCell>
        <mxCell id="PCej6FupO0yh5T7sdm5t-1" value="READ NUM" style="shape=parallelogram;html=1;strokeWidth=2;perimeter=parallelogramPerimeter;whiteSpace=wrap;rounded=1;arcSize=12;size=0.23;" vertex="1" parent="WIyWlLk6GJQsqaUBKTNV-1">
          <mxGeometry x="360" y="200" width="200" height="60" as="geometry" />
        </mxCell>
        <mxCell id="PCej6FupO0yh5T7sdm5t-5" style="edgeStyle=orthogonalEdgeStyle;rounded=0;orthogonalLoop=1;jettySize=auto;html=1;exitX=0;exitY=0.5;exitDx=0;exitDy=0;exitPerimeter=0;" edge="1" parent="WIyWlLk6GJQsqaUBKTNV-1" source="PCej6FupO0yh5T7sdm5t-3" target="PCej6FupO0yh5T7sdm5t-4">
          <mxGeometry relative="1" as="geometry" />
        </mxCell>
        <mxCell id="PCej6FupO0yh5T7sdm5t-12" value="" style="edgeStyle=orthogonalEdgeStyle;rounded=0;orthogonalLoop=1;jettySize=auto;html=1;" edge="1" parent="WIyWlLk6GJQsqaUBKTNV-1" source="PCej6FupO0yh5T7sdm5t-3" target="PCej6FupO0yh5T7sdm5t-4">
          <mxGeometry relative="1" as="geometry" />
        </mxCell>
        <mxCell id="PCej6FupO0yh5T7sdm5t-13" value="NO" style="edgeLabel;html=1;align=center;verticalAlign=middle;resizable=0;points=[];" vertex="1" connectable="0" parent="PCej6FupO0yh5T7sdm5t-12">
          <mxGeometry x="-0.0857" y="4" relative="1" as="geometry">
            <mxPoint as="offset" />
          </mxGeometry>
        </mxCell>
        <mxCell id="PCej6FupO0yh5T7sdm5t-15" style="edgeStyle=orthogonalEdgeStyle;rounded=0;orthogonalLoop=1;jettySize=auto;html=1;exitX=0.5;exitY=1;exitDx=0;exitDy=0;exitPerimeter=0;" edge="1" parent="WIyWlLk6GJQsqaUBKTNV-1" source="PCej6FupO0yh5T7sdm5t-3" target="PCej6FupO0yh5T7sdm5t-14">
          <mxGeometry relative="1" as="geometry" />
        </mxCell>
        <mxCell id="PCej6FupO0yh5T7sdm5t-16" value="YES" style="edgeLabel;html=1;align=center;verticalAlign=middle;resizable=0;points=[];" vertex="1" connectable="0" parent="PCej6FupO0yh5T7sdm5t-15">
          <mxGeometry x="-0.0733" y="3" relative="1" as="geometry">
            <mxPoint as="offset" />
          </mxGeometry>
        </mxCell>
        <mxCell id="PCej6FupO0yh5T7sdm5t-3" value="NUM = -99" style="strokeWidth=2;html=1;shape=mxgraph.flowchart.decision;whiteSpace=wrap;" vertex="1" parent="WIyWlLk6GJQsqaUBKTNV-1">
          <mxGeometry x="382" y="360" width="156" height="150" as="geometry" />
        </mxCell>
        <mxCell id="PCej6FupO0yh5T7sdm5t-7" style="edgeStyle=orthogonalEdgeStyle;rounded=0;orthogonalLoop=1;jettySize=auto;html=1;exitX=0.5;exitY=0;exitDx=0;exitDy=0;entryX=0.5;entryY=1;entryDx=0;entryDy=0;" edge="1" parent="WIyWlLk6GJQsqaUBKTNV-1" source="PCej6FupO0yh5T7sdm5t-4" target="PCej6FupO0yh5T7sdm5t-6">
          <mxGeometry relative="1" as="geometry" />
        </mxCell>
        <mxCell id="PCej6FupO0yh5T7sdm5t-4" value="SUM = SUM + NUM" style="rounded=1;whiteSpace=wrap;html=1;absoluteArcSize=1;arcSize=14;strokeWidth=2;" vertex="1" parent="WIyWlLk6GJQsqaUBKTNV-1">
          <mxGeometry x="100" y="410" width="170" height="50" as="geometry" />
        </mxCell>
        <mxCell id="PCej6FupO0yh5T7sdm5t-8" style="edgeStyle=orthogonalEdgeStyle;rounded=0;orthogonalLoop=1;jettySize=auto;html=1;exitX=0.5;exitY=0;exitDx=0;exitDy=0;entryX=0;entryY=0.5;entryDx=0;entryDy=0;" edge="1" parent="WIyWlLk6GJQsqaUBKTNV-1" source="PCej6FupO0yh5T7sdm5t-6" target="PCej6FupO0yh5T7sdm5t-1">
          <mxGeometry relative="1" as="geometry">
            <Array as="points">
              <mxPoint x="185" y="230" />
            </Array>
          </mxGeometry>
        </mxCell>
        <mxCell id="PCej6FupO0yh5T7sdm5t-6" value="PRINT &quot;ENTER ONTHER NUM&quot;&amp;nbsp;" style="shape=parallelogram;html=1;strokeWidth=2;perimeter=parallelogramPerimeter;whiteSpace=wrap;rounded=1;arcSize=12;size=0.23;" vertex="1" parent="WIyWlLk6GJQsqaUBKTNV-1">
          <mxGeometry x="50" y="270" width="270" height="60" as="geometry" />
        </mxCell>
        <mxCell id="PCej6FupO0yh5T7sdm5t-18" style="edgeStyle=orthogonalEdgeStyle;rounded=0;orthogonalLoop=1;jettySize=auto;html=1;exitX=0.5;exitY=1;exitDx=0;exitDy=0;" edge="1" parent="WIyWlLk6GJQsqaUBKTNV-1" source="PCej6FupO0yh5T7sdm5t-14" target="PCej6FupO0yh5T7sdm5t-17">
          <mxGeometry relative="1" as="geometry" />
        </mxCell>
        <mxCell id="PCej6FupO0yh5T7sdm5t-14" value="PRINT SUM" style="shape=parallelogram;html=1;strokeWidth=2;perimeter=parallelogramPerimeter;whiteSpace=wrap;rounded=1;arcSize=12;size=0.23;" vertex="1" parent="WIyWlLk6GJQsqaUBKTNV-1">
          <mxGeometry x="340" y="570" width="240" height="60" as="geometry" />
        </mxCell>
        <mxCell id="PCej6FupO0yh5T7sdm5t-17" value="END" style="strokeWidth=2;html=1;shape=mxgraph.flowchart.terminator;whiteSpace=wrap;" vertex="1" parent="WIyWlLk6GJQsqaUBKTNV-1">
          <mxGeometry x="410" y="690" width="100" height="60" as="geometry" />
        </mxCell>
        <mxCell id="PCej6FupO0yh5T7sdm5t-21" style="edgeStyle=orthogonalEdgeStyle;rounded=0;orthogonalLoop=1;jettySize=auto;html=1;exitX=0.5;exitY=1;exitDx=0;exitDy=0;" edge="1" parent="WIyWlLk6GJQsqaUBKTNV-1" source="PCej6FupO0yh5T7sdm5t-19" target="PCej6FupO0yh5T7sdm5t-1">
          <mxGeometry relative="1" as="geometry" />
        </mxCell>
        <mxCell id="PCej6FupO0yh5T7sdm5t-19" value="SUM = 0" style="rounded=1;whiteSpace=wrap;html=1;absoluteArcSize=1;arcSize=14;strokeWidth=2;" vertex="1" parent="WIyWlLk6GJQsqaUBKTNV-1">
          <mxGeometry x="375" y="110" width="170" height="50" as="geometry" />
        </mxCell>
      </root>
    </mxGraphModel>
  </diagram>
</mxfile>
